<svg xmlns="http://www.w3.org/2000/svg" viewBox="0 0 180 44" width="360" height="88">
  <defs>
    <linearGradient id="logo-grad" x1="0" y1="0" x2="0" y2="1">
      <stop offset="0%" stop-color="#FFF066"/>
      <stop offset="100%" stop-color="#FFD600"/>
    </linearGradient>
  </defs>
  <g transform="translate(0, 2) scale(0.24)">
    <path fill="url(#logo-grad)" d="M 64,2 C 60,15 48,32 32,48 C 14,66 6,84 20,102 C 30,115 56,114 56,98 C 56,90 44,88 35,82 C 26,76 30,62 38,52 C 46,42 62,25 64,2 Z"/>
    <path fill="url(#logo-grad)" d="M 64,2 C 60,15 48,32 32,48 C 14,66 6,84 20,102 C 30,115 56,114 56,98 C 56,90 44,88 35,82 C 26,76 30,62 38,52 C 46,42 62,25 64,2 Z" transform="rotate(180, 50, 80)"/>
  </g>
  <text x="30" y="30" font-family="Arial, Helvetica, sans-serif" font-weight="800" font-size="22" letter-spacing="-0.5">
    <tspan fill="#FFFFFF">Stack</tspan><tspan fill="#FFC107">ly</tspan>
  </text>
</svg>
